<svg xmlns="http://www.w3.org/2000/svg" xmlns:xlink="http://www.w3.org/1999/xlink" version="1.1" width="256" height="256" viewBox="0 0 256 256" xml:space="preserve">
<desc>Created with Fabric.js 1.7.22</desc>
<defs>
</defs>
<g transform="translate(128 128) scale(0.72 0.72)" style="">
	<g style="stroke: none; stroke-width: 0; stroke-dasharray: none; stroke-linecap: butt; stroke-linejoin: miter; stroke-miterlimit: 10; fill: none; fill-rule: nonzero; opacity: 1;" transform="translate(-175.05 -175.05000000000004) scale(3.89 3.89)" >
	<path d="M 17.17 55.69 c -0.338 0 -0.657 -0.172 -0.842 -0.461 c -0.204 -0.318 -0.21 -0.724 -0.018 -1.049 l 12.975 -21.877 c 0.158 -0.266 0.43 -0.444 0.737 -0.482 l 28.235 -3.5 c 0.375 -0.052 0.752 0.126 0.961 0.447 c 0.209 0.32 0.216 0.732 0.02 1.06 L 45.719 52.322 c -0.162 0.27 -0.441 0.447 -0.753 0.479 l -27.692 2.883 C 17.239 55.688 17.204 55.69 17.17 55.69 z M 30.755 33.746 L 19.044 53.49 l 25.217 -2.626 l 12.203 -20.306 L 30.755 33.746 z M 44.862 51.808 h 0.01 H 44.862 z" style="stroke: none; stroke-width: 1; stroke-dasharray: none; stroke-linecap: butt; stroke-linejoin: miter; stroke-miterlimit: 10; fill: rgb(0,0,0); fill-rule: nonzero; opacity: 1;" transform=" matrix(1 0 0 1 0 0) " stroke-linecap="round" />
	<path d="M 17.17 71.86 C 7.702 71.86 0 64.158 0 54.69 s 7.702 -17.17 17.17 -17.17 c 3.089 0 6.119 0.83 8.761 2.401 c 0.475 0.282 0.631 0.896 0.349 1.37 c -0.282 0.475 -0.896 0.632 -1.37 0.349 c -2.333 -1.387 -5.009 -2.12 -7.739 -2.12 C 8.805 39.52 2 46.325 2 54.69 c 0 8.364 6.805 15.17 15.17 15.17 s 15.17 -6.806 15.17 -15.17 c 0 -0.522 -0.027 -1.052 -0.081 -1.572 c -0.057 -0.55 0.343 -1.041 0.893 -1.098 c 0.548 -0.043 1.041 0.344 1.097 0.893 c 0.061 0.589 0.091 1.187 0.091 1.777 C 34.34 64.158 26.638 71.86 17.17 71.86 z" style="stroke: none; stroke-width: 1; stroke-dasharray: none; stroke-linecap: butt; stroke-linejoin: miter; stroke-miterlimit: 10; fill: rgb(0,0,0); fill-rule: nonzero; opacity: 1;" transform=" matrix(1 0 0 1 0 0) " stroke-linecap="round" />
	<path d="M 72.831 55.69 c -0.351 0 -0.691 -0.185 -0.874 -0.513 L 52.636 20.567 l -5.274 3.476 c -0.46 0.306 -1.081 0.176 -1.385 -0.285 c -0.304 -0.461 -0.176 -1.082 0.285 -1.385 l 6.173 -4.068 c 0.231 -0.152 0.518 -0.202 0.787 -0.137 c 0.27 0.066 0.5 0.242 0.636 0.484 l 19.846 35.551 c 0.27 0.482 0.097 1.091 -0.386 1.36 C 73.163 55.649 72.996 55.69 72.831 55.69 z" style="stroke: none; stroke-width: 1; stroke-dasharray: none; stroke-linecap: butt; stroke-linejoin: miter; stroke-miterlimit: 10; fill: rgb(0,0,0); fill-rule: nonzero; opacity: 1;" transform=" matrix(1 0 0 1 0 0) " stroke-linecap="round" />
	<path d="M 44.862 52.808 c -0.299 0 -0.596 -0.134 -0.793 -0.39 L 22.907 24.931 c -0.337 -0.438 -0.255 -1.065 0.183 -1.402 c 0.436 -0.336 1.064 -0.256 1.402 0.183 l 21.162 27.486 c 0.337 0.438 0.255 1.065 -0.183 1.402 C 45.29 52.74 45.076 52.808 44.862 52.808 z" style="stroke: none; stroke-width: 1; stroke-dasharray: none; stroke-linecap: butt; stroke-linejoin: miter; stroke-miterlimit: 10; fill: rgb(0,0,0); fill-rule: nonzero; opacity: 1;" transform=" matrix(1 0 0 1 0 0) " stroke-linecap="round" />
	<path d="M 30.232 25.321 H 17.17 c -0.552 0 -1 -0.448 -1 -1 s 0.448 -1 1 -1 h 13.062 c 0.552 0 1 0.448 1 1 S 30.784 25.321 30.232 25.321 z" style="stroke: none; stroke-width: 1; stroke-dasharray: none; stroke-linecap: butt; stroke-linejoin: miter; stroke-miterlimit: 10; fill: rgb(0,0,0); fill-rule: nonzero; opacity: 1;" transform=" matrix(1 0 0 1 0 0) " stroke-linecap="round" />
	<path d="M 72.83 71.86 c -9.468 0 -17.17 -7.702 -17.17 -17.17 s 7.702 -17.17 17.17 -17.17 S 90 45.223 90 54.69 S 82.298 71.86 72.83 71.86 z M 72.83 39.52 c -8.364 0 -15.17 6.805 -15.17 15.17 c 0 8.364 6.806 15.17 15.17 15.17 S 88 63.055 88 54.69 C 88 46.325 81.194 39.52 72.83 39.52 z" style="stroke: none; stroke-width: 1; stroke-dasharray: none; stroke-linecap: butt; stroke-linejoin: miter; stroke-miterlimit: 10; fill: rgb(0,0,0); fill-rule: nonzero; opacity: 1;" transform=" matrix(1 0 0 1 0 0) " stroke-linecap="round" />
</g>
</g>
</svg>